<svg width="156" height="156" viewBox="0 0 156 156" xmlns="http://www.w3.org/2000/svg" xmlns:xlink="http://www.w3.org/1999/xlink"><svg width="52" height="52" viewBox="-10 -10 52 52" id="500px" xmlns="http://www.w3.org/2000/svg"><path d="M7.906 21.025c.006.019.175.475.269.706.525 1.244 1.281 2.369 2.244 3.331s2.081 1.719 3.331 2.244c1.294.544 2.663.825 4.075.825s2.788-.275 4.075-.825c1.25-.525 2.369-1.281 3.331-2.244s1.719-2.081 2.244-3.331c.544-1.294.825-2.663.825-4.075s-.275-2.787-.825-4.075c-.525-1.25-1.281-2.369-2.244-3.331S23.15 8.531 21.9 8.006a10.457 10.457 0 00-4.075-.825c-1.431 0-2.863.287-4.131.825-1.019.431-2.744 1.537-3.75 2.581l-.006.006V1.968h14.481c.525-.006.525-.744.525-.981 0-.244 0-.975-.531-.981H8.757a.687.687 0 00-.688.681v12.131c0 .394.488.675.944.769.887.188 1.088-.094 1.306-.394l.031-.037c.331-.494 1.363-1.531 1.375-1.544a8.524 8.524 0 016.075-2.5c2.294 0 4.444.887 6.056 2.5a8.488 8.488 0 012.512 6.037 8.471 8.471 0 01-2.5 6.038c-1.587 1.587-3.813 2.5-6.094 2.5a8.29 8.29 0 01-4.319-1.194l.006-7.375c0-.981.425-2.056 1.144-2.863a4.182 4.182 0 013.175-1.431c1.188 0 2.3.45 3.131 1.269a4.283 4.283 0 011.275 3.056c0 2.462-1.938 4.394-4.412 4.394-.475 0-1.344-.212-1.381-.219-.5-.15-.713.544-.781.775-.269.881.137 1.056.219 1.081.794.25 1.319.294 2.006.294a6.345 6.345 0 006.337-6.338c0-3.469-2.844-6.287-6.331-6.287a6.426 6.426 0 00-4.525 1.838c-1.15 1.131-1.806 2.637-1.806 4.137v.038c-.006.188-.006 4.613-.012 6.063l-.006-.006c-.656-.725-1.306-1.837-1.738-2.975-.169-.444-.55-.369-1.069-.206-.25.069-.938.281-.781.788zm7.444-1.731c0 .212.194.4.313.506l.037.038c.2.194.387.294.563.294a.369.369 0 00.262-.1c.087-.081 1.075-1.087 1.175-1.181l1.106 1.1c.1.113.212.175.344.175.175 0 .369-.106.569-.313.475-.488.238-.75.125-.875l-1.119-1.119 1.169-1.175c.256-.275.031-.569-.194-.794-.325-.325-.644-.412-.844-.225l-1.163 1.162-1.175-1.175a.317.317 0 00-.225-.094c-.156 0-.344.106-.55.313-.363.363-.438.613-.25.813l1.175 1.169-1.169 1.169c-.106.1-.156.206-.15.313zm2.556-15.863c-1.875 0-3.875.381-5.338 1.012a.418.418 0 00-.269.362c-.019.169.025.388.137.675.094.231.331.85.8.669 1.5-.575 3.162-.888 4.669-.888 1.712 0 3.375.338 4.938.994 1.244.525 2.413 1.287 3.688 2.388a.447.447 0 00.294.119c.25 0 .488-.244.694-.475.337-.381.575-.7.238-1.019-1.219-1.15-2.55-2.013-4.2-2.712a14.652 14.652 0 00-5.65-1.125zM28.012 26.6c-.225-.225-.419-.356-.587-.406s-.325-.012-.444.106l-.113.113a12.623 12.623 0 01-8.95 3.706 12.628 12.628 0 01-8.95-3.706c-1.213-1.212-2.125-2.569-2.713-4.025-.575-1.425-.763-2.494-.825-2.844-.006-.031-.013-.056-.013-.075-.081-.413-.463-.444-1.006-.356-.225.038-.919.144-.856.637v.012c.181 1.156.506 2.288.963 3.363a14.614 14.614 0 007.744 7.744c1.794.756 3.7 1.144 5.662 1.144a14.496 14.496 0 0010.288-4.263l.119-.119c.137-.169.269-.45-.319-1.031z"/></svg><svg width="52" height="52" viewBox="-10 -10 52 52" id="accessibility" x="52" xmlns="http://www.w3.org/2000/svg"><path d="M13 3a3 3 0 116 0 3 3 0 01-6 0z"/><path d="M20 10l10.3-4.443-.743-1.857L17 8h-2L2.443 3.7 1.7 5.557 12 10v8L7.898 31.268l1.87.709L15.572 19h.857l5.804 12.977 1.87-.709L20.001 18z"/></svg><svg width="52" height="52" viewBox="-10 -10 52 52" id="address-book" y="52" xmlns="http://www.w3.org/2000/svg"><path d="M6 0v32h24V0H6zm12 8.01a3.99 3.99 0 110 7.98 3.99 3.99 0 010-7.98zM24 24H12v-2a4 4 0 014-4h4a4 4 0 014 4v2zM2 2h3v6H2V2zM2 10h3v6H2v-6zM2 18h3v6H2v-6zM2 26h3v6H2v-6z"/></svg><svg width="52" height="52" viewBox="-10 -10 52 52" id="aid-kit" x="52" y="52" xmlns="http://www.w3.org/2000/svg"><path d="M28 8h-6V4c0-1.1-.9-2-2-2h-8c-1.1 0-2 .9-2 2v4H4c-2.2 0-4 1.8-4 4v16c0 2.2 1.8 4 4 4h24c2.2 0 4-1.8 4-4V12c0-2.2-1.8-4-4-4zM12 4h8v4h-8V4zm12 18h-6v6h-4v-6H8v-4h6v-6h4v6h6v4z"/></svg><svg width="52" height="52" viewBox="-10 -10 52 52" id="airplane" x="104" xmlns="http://www.w3.org/2000/svg"><path d="M24 19.999l-5.713-5.713L32 4l-4-4-17.141 6.858-5.397-5.397C3.906-.095 1.734-.467.634.633s-.727 3.273.828 4.828l5.396 5.396L0 28l4 4 10.287-13.715L20 23.998v7.999h4l2-6 6-2v-4h-7.999z"/></svg><svg width="52" height="52" viewBox="-10 -10 52 52" id="alarm" x="104" y="52" xmlns="http://www.w3.org/2000/svg"><path d="M16 4C8.268 4 2 10.268 2 18s6.268 14 14 14 14-6.268 14-14S23.732 4 16 4zm0 25.25C9.787 29.25 4.75 24.213 4.75 18S9.787 6.75 16 6.75 27.25 11.787 27.25 18 22.213 29.25 16 29.25zM29.212 8.974a6 6 0 00-9.959-6.643 16.011 16.011 0 019.96 6.643zM12.748 2.331a6 6 0 00-9.96 6.643 16.008 16.008 0 019.96-6.643z"/><path d="M16 18v-8h-2v10h8v-2z"/></svg><svg width="52" height="52" viewBox="-10 -10 52 52" id="amazon" y="104" xmlns="http://www.w3.org/2000/svg"><path d="M28.925 27.663c-3.506 2.587-8.581 3.962-12.956 3.962-6.131 0-11.65-2.262-15.825-6.038-.325-.294-.038-.7.356-.469 4.506 2.625 10.081 4.2 15.838 4.2 3.881 0 8.15-.806 12.081-2.475.587-.25 1.087.394.506.819z"/><path d="M30.381 26c-.45-.575-2.962-.275-4.094-.137-.344.038-.394-.256-.087-.475 2.006-1.406 5.294-1 5.675-.531.387.475-.1 3.769-1.981 5.344-.288.244-.563.113-.438-.206.431-1.056 1.375-3.419.925-3.994zM22.106 23.675l.006.006c.775-.681 2.169-1.9 2.956-2.556.313-.25.256-.669.012-1.019-.706-.975-1.456-1.769-1.456-3.569v-6c0-2.544.175-4.875-1.694-6.625-1.475-1.413-3.925-1.913-5.8-1.913-3.662 0-7.75 1.369-8.606 5.894-.094.481.263.738.575.806l3.731.406c.35-.019.6-.363.669-.713.319-1.556 1.625-2.313 3.094-2.313.794 0 1.694.287 2.163 1 .538.794.469 1.875.469 2.794v.5c-2.231.25-5.15.412-7.238 1.331-2.412 1.044-4.106 3.169-4.106 6.294 0 4 2.519 6 5.763 6 2.738 0 4.231-.644 6.344-2.806.7 1.012.925 1.506 2.206 2.569.294.156.656.144.913-.087zm-3.881-9.388c0 1.5.038 2.75-.719 4.081-.613 1.087-1.581 1.75-2.662 1.75-1.475 0-2.338-1.125-2.338-2.788 0-3.281 2.944-3.875 5.725-3.875v.831z"/></svg><svg width="52" height="52" viewBox="-10 -10 52 52" id="android" x="52" y="104" xmlns="http://www.w3.org/2000/svg"><path d="M28 12c-1.1 0-2 .9-2 2v8c0 1.1.9 2 2 2s2-.9 2-2v-8c0-1.1-.9-2-2-2zM4 12c-1.1 0-2 .9-2 2v8c0 1.1.9 2 2 2s2-.9 2-2v-8c0-1.1-.9-2-2-2zm3 11a3 3 0 003 3v4c0 1.1.9 2 2 2s2-.9 2-2v-4h4v4c0 1.1.9 2 2 2s2-.9 2-2v-4a3 3 0 003-3V12H7v11zM24.944 10a8.994 8.994 0 00-4.051-6.551l1.001-2.001a1 1 0 00-1.789-.895l-1.004 2.009-.261-.104C17.947 2.161 16.992 2 16 2s-1.947.161-2.84.458l-.261.104L11.895.553a1 1 0 00-1.789.895l1.001 2.001A8.996 8.996 0 007.056 10v1H25v-1h-.056zM13 8a1 1 0 01-.002-2h.005a1 1 0 01-.002 2zm6 0a1 1 0 01-.002-2h.005a1 1 0 01-.002 2z"/></svg></svg>